<?xml version="1.0" encoding="iso-8859-1"?>
<!-- Generator: Adobe Illustrator 19.0.0, SVG Export Plug-In . SVG Version: 6.00 Build 0)  -->
<svg version="1.1" id="Layer_1" xmlns="http://www.w3.org/2000/svg" xmlns:xlink="http://www.w3.org/1999/xlink" x="0px" y="0px"
	 viewBox="0 0 512 512" style="enable-background:new 0 0 512 512;" xml:space="preserve">
<path style="fill:#7D684A;" d="M482.889,0H29.111C13.033,0,0,13.033,0,29.111v453.778C0,498.967,13.033,512,29.111,512h453.778
	C498.967,512,512,498.967,512,482.889V29.111C512,13.033,498.967,0,482.889,0L482.889,0z"/>
<rect x="33.391" y="33.391" style="fill:#534532;" width="445.219" height="445.219"/>
<g>
	<path style="fill:#7D684A;" d="M230.14,54.658H70.147c-9.221,0-16.695,7.475-16.695,16.695v159.993
		c0,9.221,7.475,16.695,16.695,16.695H230.14c9.221,0,16.695-7.475,16.695-16.695V71.353
		C246.835,62.132,239.36,54.658,230.14,54.658z"/>
	<path style="fill:#7D684A;" d="M230.14,263.959H70.147c-9.221,0-16.695,7.475-16.695,16.695v159.993
		c0,9.221,7.475,16.695,16.695,16.695H230.14c9.221,0,16.695-7.475,16.695-16.695V280.656
		C246.835,271.434,239.36,263.959,230.14,263.959z"/>
</g>
<g>
	<path style="fill:#BDAC92;" d="M179.042,143.738h-57.798c-6.955,0-12.594-5.638-12.594-12.594l0,0
		c0-6.955,5.638-12.594,12.594-12.594h57.798c6.955,0,12.594,5.638,12.594,12.594l0,0
		C191.636,138.1,185.998,143.738,179.042,143.738z"/>
	<path style="fill:#BDAC92;" d="M179.042,352.729h-57.798c-6.955,0-12.594-5.638-12.594-12.594l0,0
		c0-6.955,5.638-12.594,12.594-12.594h57.798c6.955,0,12.594,5.638,12.594,12.594l0,0
		C191.636,347.091,185.998,352.729,179.042,352.729z"/>
</g>
<g>
	<rect x="106.554" y="156.292" style="fill:#EAE6DD;" width="87.165" height="37.475"/>
	<rect x="106.554" y="360.647" style="fill:#EAE6DD;" width="87.165" height="37.475"/>
</g>
<g>
	<path style="fill:#7D684A;" d="M441.854,54.658H281.861c-9.221,0-16.695,7.475-16.695,16.695v159.993
		c0,9.221,7.475,16.695,16.695,16.695h159.993c9.221,0,16.695-7.475,16.695-16.695V71.353
		C458.549,62.132,451.075,54.658,441.854,54.658z"/>
	<path style="fill:#7D684A;" d="M441.854,263.959H281.861c-9.221,0-16.695,7.475-16.695,16.695v159.993
		c0,9.221,7.475,16.695,16.695,16.695h159.993c9.221,0,16.695-7.475,16.695-16.695V280.656
		C458.549,271.434,451.075,263.959,441.854,263.959z"/>
</g>
<g>
	<path style="fill:#BDAC92;" d="M390.756,143.738h-57.797c-6.955,0-12.594-5.638-12.594-12.594l0,0
		c0-6.955,5.638-12.594,12.594-12.594h57.797c6.955,0,12.594,5.638,12.594,12.594l0,0C403.35,138.1,397.711,143.738,390.756,143.738
		z"/>
	<path style="fill:#BDAC92;" d="M390.756,352.729h-57.797c-6.955,0-12.594-5.638-12.594-12.594l0,0
		c0-6.955,5.638-12.594,12.594-12.594h57.797c6.955,0,12.594,5.638,12.594,12.594l0,0
		C403.35,347.091,397.711,352.729,390.756,352.729z"/>
	<rect x="318.276" y="156.292" style="fill:#EAE6DD;" width="87.165" height="37.475"/>
	<rect x="318.276" y="360.647" style="fill:#EAE6DD;" width="87.165" height="37.475"/>
</g>
<g>
</g>
<g>
</g>
<g>
</g>
<g>
</g>
<g>
</g>
<g>
</g>
<g>
</g>
<g>
</g>
<g>
</g>
<g>
</g>
<g>
</g>
<g>
</g>
<g>
</g>
<g>
</g>
<g>
</g>
</svg>
