<?xml version="1.0" encoding="iso-8859-1"?>
<!-- Generator: Adobe Illustrator 19.0.0, SVG Export Plug-In . SVG Version: 6.00 Build 0)  -->
<svg version="1.1" id="Layer_1" xmlns="http://www.w3.org/2000/svg" xmlns:xlink="http://www.w3.org/1999/xlink" x="0px" y="0px"
	 viewBox="0 0 508 508" style="enable-background:new 0 0 508 508;" xml:space="preserve">
<circle style="fill:#324A5E;" cx="254" cy="254" r="254"/>
<path style="fill:#FFFFFF;" d="M346.8,215.6h-35.6v-66.8c0-31.6-25.6-57.2-57.2-57.2s-57.2,25.6-57.2,57.2v66.8h-35.6v-66.8
	c0-51.2,41.6-92.8,92.8-92.8s92.8,41.6,92.8,92.8V215.6z"/>
<path style="fill:#E6E9EE;" d="M355.6,414H152.4c-12.4,0-22-10-22-22V226.8c0-12.4,10-22,22-22h203.2c12.4,0,22,10,22,22V392
	C377.6,404,368,414,355.6,414z"/>
<g>
	<path style="fill:#ACB3BA;" d="M377.6,226.8L377.6,226.8c0-12.4-10-22.4-22-22.4H152.4c-12,0-22,10-22,22v0.4H377.6z"/>
	<path style="fill:#ACB3BA;" d="M130.4,391.6L130.4,391.6c0,12.4,10,22.4,22,22.4H356c12,0,22-10,22-22v-0.4H130.4z"/>
</g>
<g>
</g>
<g>
</g>
<g>
</g>
<g>
</g>
<g>
</g>
<g>
</g>
<g>
</g>
<g>
</g>
<g>
</g>
<g>
</g>
<g>
</g>
<g>
</g>
<g>
</g>
<g>
</g>
<g>
</g>
</svg>
