<?xml version="1.0" encoding="iso-8859-1"?>
<!-- Generator: Adobe Illustrator 19.0.0, SVG Export Plug-In . SVG Version: 6.00 Build 0)  -->
<svg version="1.1" id="Layer_1" xmlns="http://www.w3.org/2000/svg" xmlns:xlink="http://www.w3.org/1999/xlink" x="0px" y="0px"
	 viewBox="0 0 511.997 511.997" style="enable-background:new 0 0 511.997 511.997;" xml:space="preserve">
<rect x="137.053" y="358.579" style="fill:#242D3C;" width="237.875" height="17.841"/>
<g>
	<path style="fill:#F96232;" d="M196.527,49.352c-16.412,0-29.727-13.312-29.727-29.729c0,16.417-13.317,29.729-29.742,29.729
		c-16.412,0-29.729-13.312-29.729-29.729c0,16.417-13.317,29.729-29.742,29.729c-16.412,0-29.729-13.312-29.729-29.729v254.676
		c97.408-42.575,167.588-135.808,177.221-246.408C221.492,40.282,210.077,49.352,196.527,49.352z"/>
	<path style="fill:#F96232;" d="M47.858,163.205v213.212h89.198v-76.956C137.059,238.508,100.353,186.153,47.858,163.205z"/>
</g>
<path style="fill:#242D3C;" d="M126.353,238.676H47.858c-4.925,0-8.919-3.994-8.919-8.919c0-4.928,3.994-8.919,8.919-8.919h78.495
	c4.925,0,8.919,3.994,8.919,8.919C135.274,234.683,131.281,238.676,126.353,238.676z"/>
<g>
	<path style="fill:#F96232;" d="M434.408,49.352c-16.41,0-29.727-13.312-29.727-29.729c0,16.417-13.317,29.729-29.742,29.729
		c-16.41,0-29.727-13.312-29.727-29.729c0,16.417-13.317,29.729-29.742,29.729c-13.601,0-25.052-9.155-28.582-21.632
		c9.574,110.671,79.777,203.983,177.236,246.579V20.173C463.827,36.334,450.646,49.352,434.408,49.352z"/>
	<path style="fill:#F96232;" d="M464.124,163.205v213.212h-89.198v-76.956C374.926,238.508,411.629,186.153,464.124,163.205z"/>
</g>
<g>
	<path style="fill:#242D3C;" d="M464.124,238.676h-78.495c-4.928,0-8.919-3.994-8.919-8.919c0-4.928,3.994-8.919,8.919-8.919h78.495
		c4.928,0,8.919,3.994,8.919,8.919C473.043,234.683,469.052,238.676,464.124,238.676z"/>
	<rect x="24.076" y="494.157" style="fill:#242D3C;" width="463.846" height="17.841"/>
	<path style="fill:#242D3C;" d="M303.566,428.152h-17.841v-3.569c0-3.336-1.3-6.469-3.656-8.824
		c-2.363-2.363-5.496-3.663-8.832-3.663h-34.493c-3.336,0-6.467,1.3-8.829,3.658c-2.358,2.36-3.658,5.494-3.658,8.829v3.569h-17.841
		v-3.569c0-8.1,3.156-15.718,8.886-21.445c5.729-5.724,13.34-8.883,21.443-8.883h34.496c8.097,0,15.716,3.156,21.443,8.886
		c5.727,5.722,8.886,13.338,8.886,21.443v3.569H303.566z"/>
	<path style="fill:#242D3C;" d="M416.549,428.152h-17.841v-3.569c0-3.336-1.3-6.469-3.656-8.824
		c-2.363-2.363-5.496-3.663-8.832-3.663h-34.496c-3.336,0-6.469,1.3-8.829,3.658c-2.358,2.36-3.658,5.494-3.658,8.829v3.569h-17.841
		v-3.569c0-8.105,3.156-15.721,8.888-21.445c5.724-5.724,13.343-8.883,21.44-8.883h34.496c8.097,0,15.716,3.156,21.443,8.886
		c5.727,5.722,8.886,13.338,8.886,21.443V428.152z"/>
	<path style="fill:#242D3C;" d="M190.58,428.152H172.74v-3.569c0-3.336-1.298-6.469-3.656-8.824
		c-2.363-2.363-5.496-3.663-8.832-3.663h-34.491c-3.338,0-6.474,1.3-8.829,3.658c-2.363,2.36-3.658,5.494-3.658,8.829v3.569H95.433
		v-3.569c0-8.1,3.154-15.718,8.881-21.445c5.724-5.724,13.34-8.883,21.445-8.883h34.491c8.102,0,15.713,3.156,21.443,8.886
		c5.729,5.722,8.886,13.338,8.886,21.443v3.569H190.58z"/>
	<path style="fill:#242D3C;" d="M134.084,503.081h-17.841V474.54c0-3.336-1.298-6.472-3.656-8.827
		c-2.36-2.363-5.496-3.661-8.832-3.661H69.267c-3.338,0-6.469,1.298-8.829,3.658c-2.363,2.358-3.658,5.494-3.658,8.829v28.541
		H38.939V474.54c0-8.102,3.156-15.718,8.886-21.448c5.724-5.724,13.338-8.881,21.443-8.881h34.491
		c8.102,0,15.718,3.154,21.445,8.886c5.729,5.724,8.881,13.34,8.881,21.443V503.081z"/>
	<path style="fill:#242D3C;" d="M247.072,503.081h-17.841V474.54c0-3.336-1.295-6.472-3.658-8.827
		c-2.358-2.363-5.491-3.661-8.829-3.661h-34.491c-3.336,0-6.469,1.298-8.829,3.658c-2.358,2.358-3.658,5.494-3.658,8.829v28.541
		h-17.841V474.54c0-8.102,3.154-15.718,8.881-21.448c5.729-5.724,13.345-8.881,21.445-8.881h34.491
		c8.105,0,15.718,3.154,21.445,8.886c5.724,5.724,8.881,13.34,8.881,21.443v28.541H247.072z"/>
	<path style="fill:#242D3C;" d="M360.052,503.081h-17.841V474.54c0-3.336-1.3-6.472-3.656-8.827
		c-2.363-2.363-5.496-3.661-8.832-3.661h-34.488c-3.336,0-6.469,1.298-8.824,3.656c-2.363,2.36-3.663,5.496-3.663,8.832v28.541
		h-17.841V474.54c0-8.105,3.156-15.724,8.888-21.448c5.716-5.724,13.335-8.881,21.44-8.881h34.488
		c8.105,0,15.724,3.154,21.445,8.888c5.724,5.716,8.883,13.335,8.883,21.44L360.052,503.081L360.052,503.081z"/>
	<path style="fill:#242D3C;" d="M473.043,503.081h-17.841V474.54c0-3.336-1.3-6.472-3.656-8.827
		c-2.363-2.363-5.496-3.661-8.832-3.661h-34.496c-3.336,0-6.469,1.298-8.824,3.656c-2.363,2.36-3.663,5.496-3.663,8.832v28.541
		h-17.841V474.54c0-8.105,3.156-15.724,8.888-21.448c5.716-5.724,13.335-8.881,21.44-8.881h34.496
		c8.105,0,15.721,3.154,21.445,8.888c5.724,5.716,8.883,13.335,8.883,21.44L473.043,503.081L473.043,503.081z"/>
	<rect x="282.743" y="218.957" style="fill:#242D3C;" width="17.841" height="17.841"/>
	<rect x="247.082" y="218.957" style="fill:#242D3C;" width="17.841" height="17.841"/>
	<rect x="211.396" y="218.957" style="fill:#242D3C;" width="17.838" height="17.841"/>
	<path style="fill:#242D3C;" d="M77.587,58.271c-21.309,0-38.648-17.336-38.648-38.648V8.919H56.78v10.703
		c0,11.474,9.334,20.808,20.808,20.808c11.479,0,20.82-9.334,20.82-20.808V8.919h17.841v10.703
		C116.248,40.934,98.904,58.271,77.587,58.271z"/>
	<path style="fill:#242D3C;" d="M137.059,58.271c-21.309,0-38.648-17.336-38.648-38.648V8.919h17.841v10.703
		c0,11.474,9.334,20.808,20.808,20.808c11.482,0,20.823-9.334,20.823-20.808V8.919h17.841v10.703
		C175.72,40.934,158.376,58.271,137.059,58.271z"/>
	<path style="fill:#242D3C;" d="M196.527,58.271c-21.309,0-38.648-17.336-38.648-38.648V8.919h17.841v10.703
		c0,11.474,9.334,20.808,20.808,20.808c11.482,0,20.823-9.334,20.823-20.808V8.919h17.841v10.703
		C235.191,40.934,217.844,58.271,196.527,58.271z"/>
	<path style="fill:#242D3C;" d="M255.999,58.271c-21.312,0-38.648-17.336-38.648-38.648V8.919h17.841v10.703
		c0,11.474,9.334,20.808,20.808,20.808c11.479,0,20.823-9.334,20.823-20.808V8.919h17.841v10.703
		C294.66,40.934,277.316,58.271,255.999,58.271z"/>
	<path style="fill:#242D3C;" d="M315.467,58.271c-21.309,0-38.648-17.336-38.648-38.648V8.919h17.841v10.703
		c0,11.474,9.334,20.808,20.808,20.808c11.479,0,20.823-9.334,20.823-20.808V8.919h17.841v10.703
		C354.131,40.934,336.787,58.271,315.467,58.271z"/>
	<path style="fill:#242D3C;" d="M374.939,58.271c-21.309,0-38.648-17.336-38.648-38.648V8.919h17.841v10.703
		c0,11.474,9.334,20.808,20.808,20.808c11.479,0,20.823-9.334,20.823-20.808V8.919h17.841v10.703
		C413.6,40.934,396.256,58.271,374.939,58.271z"/>
	<path style="fill:#242D3C;" d="M434.408,58.271c-21.309,0-38.648-17.336-38.648-38.648V8.919H413.6v10.703
		c0,11.474,9.334,20.808,20.808,20.808c11.482,0,20.823-9.334,20.823-20.808V8.919h17.841v10.703
		C473.071,40.934,455.725,58.271,434.408,58.271z"/>
	<rect x="24.076" style="fill:#242D3C;" width="463.846" height="17.841"/>
</g>
<g>
</g>
<g>
</g>
<g>
</g>
<g>
</g>
<g>
</g>
<g>
</g>
<g>
</g>
<g>
</g>
<g>
</g>
<g>
</g>
<g>
</g>
<g>
</g>
<g>
</g>
<g>
</g>
<g>
</g>
</svg>
